<svg xmlns="http://www.w3.org/2000/svg" viewBox="0 0 180 180"><defs><style>.cls-1{fill:#ed2024;}.cls-1,.cls-2,.cls-3,.cls-4{stroke-width:0px;}.cls-2{fill:#278e43;}.cls-3{fill:#fff;}.cls-4{fill:#febd11;}</style></defs><path class="cls-3" d="M180,90c0,10.52-1.8,20.62-5.13,30-12.35,34.96-45.69,60-84.87,60S17.47,154.96,5.13,120C1.8,110.62,0,100.52,0,90s1.8-20.62,5.13-30C17.47,25.04,50.81,0,90,0s72.52,25.04,84.87,60c3.33,9.38,5.13,19.48,5.13,30Z"/><path class="cls-1" d="M174.87,60H5.13C17.47,25.04,50.81,0,90,0s72.52,25.04,84.87,60Z"/><path class="cls-2" d="M174.87,120c-12.35,34.96-45.69,60-84.87,60S17.47,154.96,5.13,120h169.74Z"/><path class="cls-4" d="M90,45l3.37,22.88,9.97-20.87-3.52,22.86,15.67-17-10.1,20.8,19.99-11.63-15.78,16.9,22.53-5.22-20.07,11.5,23.07,1.65-22.56,5.07,21.55,8.38-23.06-1.8,18.13,14.36-21.5-8.52,13.09,19.06-18.03-14.48,6.89,22.08-12.97-19.15.07,23.13-6.74-22.12-6.74,22.12.08-23.13-12.97,19.15,6.89-22.08-18.03,14.48,13.09-19.07-21.5,8.52,18.13-14.36-23.06,1.8,21.56-8.38-22.56-5.07,23.07-1.65-20.07-11.5,22.53,5.22-15.78-16.9,19.99,11.63-10.1-20.8,15.67,17-3.52-22.86,9.97,20.87,3.37-22.88Z"/></svg>