<svg xmlns="http://www.w3.org/2000/svg" viewBox="0 0 180 180"><defs><style>.cls-1{fill:#bfbfbf;}.cls-1,.cls-2{stroke-width:0px;}.cls-2{fill:#ff9700;}</style></defs><path class="cls-1" d="M90,.5c29.09,0,56.46,14.21,73.22,38.02,10.65,15.11,16.28,32.91,16.28,51.48s-5.63,36.37-16.28,51.48c-16.76,23.81-44.14,38.02-73.22,38.02C40.65,179.5.5,139.35.5,90S40.65.5,90,.5M90,0C40.3,0,0,40.29,0,90s40.3,90,90,90c30.44,0,57.35-15.11,73.63-38.23,10.32-14.64,16.37-32.49,16.37-51.77s-6.05-37.13-16.37-51.77C147.35,15.11,120.44,0,90,0h0Z"/><path class="cls-2" d="M74.88,90l88.75,51.77c-16.28,23.12-43.19,38.23-73.63,38.23C40.3,180,0,139.71,0,90S40.3,0,90,0c30.44,0,57.35,15.11,73.63,38.23l-88.75,51.77Z"/></svg>