<svg id="Layer_1" xmlns="http://www.w3.org/2000/svg" viewBox="0 0 180 180"><defs><style>.cls-1{fill:none;stroke-width:3.32px;}.cls-1,.cls-2{stroke-linejoin:round;}.cls-1,.cls-2,.cls-3,.cls-4,.cls-5{stroke:#fff;}.cls-2,.cls-6,.cls-3,.cls-4{fill:#004614;}.cls-2,.cls-3,.cls-4{stroke-width:.51px;}.cls-6,.cls-7{stroke-width:0px;}.cls-4,.cls-5{stroke-linecap:round;}.cls-7,.cls-5{fill:#fff;}.cls-5{stroke-width:1.52px;}</style></defs><circle id="blue" class="cls-6" cx="90" cy="90" r="90"/><g id="path3978"><path class="cls-5" d="M89.74,34.73c-26.06,0-47.19,21.13-47.19,47.19s21.13,47.19,47.19,47.19,47.19-21.13,47.19-47.19-21.13-47.19-47.19-47.19ZM89.74,38.47c23.99,0,43.45,19.45,43.45,43.45s-19.45,43.45-43.45,43.45-43.45-19.45-43.45-43.45,19.45-43.45,43.45-43.45Z"/></g><g id="path3948"><path class="cls-1" d="M41.89,80.4c12.65,0,18.23-4.35,26.96-4.35,9.57,0,12.94,3.82,20.27,3.82,8.92,0,9.23-3.72,18.79-3.72,8.75,0,15.63,4.75,28.55,4.46"/></g><g id="path3950"><path class="cls-1" d="M42.15,87.08c12.65,0,18.23-4.35,26.96-4.35,9.57,0,12.94,3.82,20.27,3.82,8.92,0,9.23-3.72,18.79-3.72,8.75,0,15.63,4.75,28.55,4.46"/></g><g id="path3952"><path class="cls-1" d="M44.37,93.69c10.77-.56,16.15-4.28,24.23-4.28,9.57,0,12.94,3.82,20.27,3.82,8.92,0,9.23-3.72,18.79-3.72,8.46,0,15.18,4.45,27.32,4.47"/></g><g id="path3954"><path class="cls-1" d="M46.17,100.28c9.85-.79,15.1-4.19,22.81-4.19,9.57,0,12.94,3.82,20.27,3.82,8.92,0,9.23-3.72,18.79-3.72,7.82,0,14.15,3.79,24.62,4.39"/></g><g id="path3956"><path class="cls-1" d="M49.67,106.59c7.85-1.16,12.74-3.82,19.56-3.82,9.57,0,12.94,3.82,20.27,3.82,8.92,0,9.23-3.72,18.79-3.72,6.89,0,12.62,2.95,21.06,4.06"/></g><g id="path3958"><path class="cls-7" d="M88.57,45.24c3.53,1.54,6.01,5.06,6.01,9.16,0,5.52-4.48,10.01-10.01,10.01-2.76,0-5.26-1.13-7.07-2.94,1.86,3.56,5.59,5.99,9.88,5.99,6.15,0,11.14-4.99,11.14-11.14,0-5.75-4.36-10.49-9.96-11.08h0Z"/></g><g id="path3960"><path class="cls-7" d="M83.4,57.69l-2.13-2.7-3.35.78,1.91-2.86-1.77-2.95,3.31.94,2.25-2.6.13,3.44,3.17,1.34-3.23,1.19-.3,3.42Z"/></g><g id="path4181"><path class="cls-4" d="M39.68,82.02l-.81,7.05"/></g><g id="path4183"><path class="cls-4" d="M41.35,88.72l-1.02,6.52"/></g><g id="path4191"><path class="cls-4" d="M32.4,83.48l-.38,6.91"/></g><g id="path4189"><path class="cls-4" d="M28.82,86.97l.49,7.27"/></g><g id="path4179"><path class="cls-4" d="M35.63,88.27l1.34-10.92"/></g><g id="path4185"><path class="cls-4" d="M42.13,92.76l-1.38,6.94"/></g><g id="path4187"><path class="cls-4" d="M28.95,100.3l-1.66-4.35"/></g><g id="path4177"><path class="cls-3" d="M38.99,88.4c1.35,4.25-1.44,9.06-3.01,10.49.07-3.26.07-9.3,3.01-10.49Z"/></g><g id="path4169"><path class="cls-3" d="M40.39,94.41c-4.4,1.15-3.54,4.68-4.35,8.7,2.15-1.86,4.95-2.78,4.35-8.7Z"/></g><g id="path4173"><path class="cls-3" d="M32.14,89.36c-2.59,2.95.02,6.89,1.28,9.53,1.47-3.34,1.66-7.71-1.28-9.53Z"/></g><g id="path4171"><path class="cls-3" d="M29.27,93.64c.07,4.67,1.22,8.53,4.86,10.49-.32-5.45-1.49-9.62-4.86-10.49Z"/></g><g id="path4175"><path class="cls-3" d="M35.73,87.31c-2.92,3.15-1.83,8.14-.06,10.61.88-2.55,2.4-7.95.06-10.61h0Z"/></g><g id="path4167"><path class="cls-3" d="M34.83,93.84c2.18,3.47,2.59,8.34.13,11.83-2.65-3.19-1.92-8.36-.13-11.83Z"/></g><g id="path4165"><path class="cls-3" d="M34.77,107.71c-.55-3.15,1.77-6.73,6.07-8.63.07,6.37-2.73,9.42-6.07,8.63Z"/></g><g id="path4163"><path class="cls-2" d="M35.9,107.84c-4.82-.25-6.33-3.68-7.09-7.99,3.43,1.05,5.71,3.71,7.09,7.99Z"/></g><g id="path4199"><path class="cls-4" d="M19.26,108.18l4.99,6.65"/></g><g id="path4197"><path class="cls-4" d="M20.52,103.18l3.2,6.27"/></g><g id="path4195"><path class="cls-4" d="M26.08,105.44l-6.14-9.72"/></g><g id="path4201"><path class="cls-4" d="M24.73,118.09l5.12,2.17"/></g><g id="path4193"><path class="cls-4" d="M28.75,102.79l-3.2-5.37"/></g><g id="path4221"><path class="cls-4" d="M33.52,106.92l-1.53-4.09"/></g><g id="path4255"><path class="cls-4" d="M37.49,110.79l-2.4-4.46"/></g><g id="path4157-1"><path class="cls-3" d="M23.26,108.62c2.87-1,5.83-.14,6.39,6.27-3.88-.96-6.43-3.09-6.39-6.27Z"/></g><g id="path4161-0"><path class="cls-3" d="M28.63,102.55c4.11,2.1,5.44,7.24,4.52,10.59-3.49-1.31-5.82-6.26-4.52-10.59Z"/></g><g id="path4153-5"><path class="cls-3" d="M33.49,106.64c-2.28,4.14-.54,7.88,2.43,11.51.51-4.08,1.5-8.25-2.43-11.51Z"/></g><g id="path4159-8"><path class="cls-3" d="M25.11,104.02c-.87,2.77,2.09,8.99,6.65,8.38-.78-3.91-3.32-7.6-6.65-8.38Z"/></g><g id="path4155-9"><path class="cls-3" d="M23.64,114.12c2.11,4.47,6.34,5.03,10.61,5.5-3.28-3.31-6.36-7.72-10.61-5.5Z"/></g><g id="path4151-7"><path class="cls-3" d="M28.76,110.61c4.21,1.23,7.27,3.82,7.74,9.46-4.6-1.3-7.4-4.25-7.74-9.46Z"/></g><g id="path4147"><path class="cls-3" d="M37.39,110.48c-2.25,5.15-1.86,9.32,2.37,12.08,1.91-5.59.11-9.03-2.37-12.08Z"/></g><g id="path4149-6"><path class="cls-3" d="M28.88,119.88c4.36-1.96,8.39-1.72,11.89,2.11-4.89,2-8.88,1.35-11.89-2.11Z"/></g><g id="path4003"><path class="cls-3" d="M31.89,126.02c28.27-11.62,24.53,11.89,41.82,8.12-11.22-.92-17.28-25.29-41.82-8.12Z"/></g><g id="path4005"><path class="cls-3" d="M101.97,145.33c.81.75,1.17.51,1.85,0,.63-.47,1.11-1.19-.06-1.79-4.69-2.39-10.02-9.08-27.11-9.08l-20.4-.27-2.17,2.3,21.93-.24c9.03-.1,18.23,1.87,25.96,9.08Z"/></g><g id="path4209"><path class="cls-4" d="M40.07,139.5l6.29-.24"/></g><g id="path4207"><path class="cls-4" d="M32.27,133.56l7.93,3.12"/></g><g id="path4203"><path class="cls-4" d="M25.88,120.13l10.61,7.03"/></g><g id="path4213"><path class="cls-4" d="M45.04,124.41l-3.58-3.58"/></g><g id="path4211"><path class="cls-4" d="M51.21,126.04l-4.15-3.11"/></g><g id="path4205"><path class="cls-4" d="M30.35,127.42l6.85,4.27"/></g><g id="path4017"><path class="cls-3" d="M36.12,131.04c4.22-2.79,9.02-.19,9.04,2.03-2.91,1.05-6.83,2.08-9.04-2.03Z"/></g><g id="path4019"><path class="cls-3" d="M38.38,123c-.14,4.27,3.83,7.54,8.23,7.14-1.03-4.62-5.95-7.35-8.23-7.14h0Z"/></g><g id="path4021"><path class="cls-3" d="M35.57,126.52c.62,3.33,5.83,4.89,9.49,3.8-.68-3.4-7.19-5.06-9.49-3.8Z"/></g><g id="path4015"><path class="cls-3" d="M44.71,123.95c4.7.51,6.3,4.7,6.83,7.91-4.15-.92-8.39-2.52-6.83-7.91Z"/></g><g id="path4009"><path class="cls-3" d="M38.56,136.02c2.94-3.82,7.25-3.19,12.12-.77-3.75,3.8-7.89,2.82-12.12.77h0Z"/></g><g id="path4011"><path class="cls-3" d="M42.08,129.64c4.33-1.68,10.5.71,10.9,4.93-4.4,1.2-11.19.12-10.9-4.93Z"/></g><g id="path4013"><path class="cls-3" d="M50.49,125.48c3.61,1.78,7.47,3.3,7.1,9.18-7.37,1.79-7.07-4.34-7.1-9.18Z"/></g><g id="path4007"><path class="cls-2" d="M44.86,139.34c4.95.87,9.28-.13,12.73-4.56-3.75-1.31-9.6-.44-12.73,4.56Z"/></g><g id="path4215"><path class="cls-4" d="M38.46,123.14l-2.69-2.81"/></g><g id="path4001"><path class="cls-3" d="M59,139.44h6.01c5.54-3.97,7.74-8.55,17.14-8.95,3.43-.15,6.62,3.04,7.29,4.48-4.49-2.41-7.96-1.6-13.04,3.96-2.43,2.67-5.6,4.32-9.85,4.6-5.69.38-5.59-2.4-7.54-4.09Z"/></g><g id="path4917"><path class="cls-4" d="M140.32,82.02l.81,7.05"/></g><g id="path4919"><path class="cls-4" d="M138.65,88.72l1.02,6.52"/></g><g id="path4921"><path class="cls-4" d="M147.6,83.48l.38,6.91"/></g><g id="path4923"><path class="cls-4" d="M151.18,86.97l-.51,7.17"/></g><g id="path4925"><path class="cls-4" d="M144.37,88.27l-1.34-10.92"/></g><g id="path4927"><path class="cls-4" d="M137.87,92.76l1.38,6.94"/></g><g id="path4929"><path class="cls-4" d="M150.94,100.52l1.66-4.54"/></g><g id="path4933"><path class="cls-3" d="M141.01,88.4c-1.35,4.25,1.44,9.06,3.01,10.49-.07-3.26-.07-9.3-3.01-10.49Z"/></g><g id="path4935"><path class="cls-3" d="M139.61,94.41c4.4,1.15,3.54,4.68,4.35,8.7-2.15-1.86-4.95-2.78-4.35-8.7Z"/></g><g id="path4937"><path class="cls-3" d="M147.86,89.36c2.59,2.95-.02,6.89-1.28,9.53-1.47-3.34-1.66-7.71,1.28-9.53Z"/></g><g id="path4939"><path class="cls-3" d="M150.73,93.64c-.07,4.67-1.22,8.53-4.86,10.49.32-5.45,1.49-9.62,4.86-10.49Z"/></g><g id="path4941"><path class="cls-3" d="M144.27,87.31c2.92,3.15,1.83,8.14.06,10.61-.88-2.55-2.4-7.95-.06-10.61h0Z"/></g><g id="path4943"><path class="cls-3" d="M145.17,93.84c-2.18,3.47-2.59,8.34-.13,11.83,2.65-3.19,1.92-8.36.13-11.83Z"/></g><g id="path4945"><path class="cls-3" d="M145.23,107.71c.55-3.15-1.77-6.73-6.07-8.63-.07,6.37,2.73,9.42,6.07,8.63Z"/></g><g id="path4947"><path class="cls-2" d="M144.1,107.84c4.82-.25,6.33-3.68,7.09-7.99-3.43,1.05-5.71,3.71-7.09,7.99Z"/></g><g id="path4953"><path class="cls-4" d="M160.74,108.18l-4.99,6.65"/></g><g id="path4957"><path class="cls-4" d="M159.48,103.18l-3.2,6.27"/></g><g id="path4959"><path class="cls-4" d="M153.92,105.44l6.14-9.72"/></g><g id="path4961"><path class="cls-4" d="M155.27,118.09l-5.12,2.17"/></g><g id="path4963"><path class="cls-4" d="M151.25,102.79l3.2-5.37"/></g><g id="path4965"><path class="cls-4" d="M146.48,106.92l1.53-4.09"/></g><g id="path4967"><path class="cls-4" d="M142.32,110.85l2.95-4.36"/></g><g id="path4971"><path class="cls-3" d="M156.74,108.62c-2.87-1-5.83-.14-6.39,6.27,3.88-.96,6.43-3.09,6.39-6.27Z"/></g><g id="path4973"><path class="cls-3" d="M151.37,102.55c-4.11,2.1-5.44,7.24-4.52,10.59,3.49-1.31,5.82-6.26,4.52-10.59Z"/></g><g id="path4975"><path class="cls-3" d="M146.51,106.64c2.28,4.14.54,7.88-2.43,11.51-.51-4.08-1.5-8.25,2.43-11.51Z"/></g><g id="path4977"><path class="cls-3" d="M154.89,104.02c.87,2.77-2.09,8.99-6.65,8.38.78-3.91,3.32-7.6,6.65-8.38Z"/></g><g id="path4979"><path class="cls-3" d="M156.36,114.12c-2.11,4.47-6.34,5.03-10.61,5.5,3.28-3.31,6.36-7.72,10.61-5.5Z"/></g><g id="path4981"><path class="cls-3" d="M151.24,110.61c-4.21,1.23-7.27,3.82-7.74,9.46,4.6-1.3,7.4-4.25,7.74-9.46Z"/></g><g id="path4983"><path class="cls-3" d="M142.61,110.48c2.25,5.15,1.86,9.32-2.37,12.08-1.91-5.59-.11-9.03,2.37-12.08Z"/></g><g id="path4985"><path class="cls-3" d="M151.12,119.88c-4.36-1.96-8.39-1.72-11.89,2.11,4.89,2,8.88,1.35,11.89-2.11Z"/></g><g id="path4987"><path class="cls-3" d="M148.11,126.02c-28.27-11.62-24.53,11.89-41.82,8.12,11.22-.92,17.28-25.29,41.82-8.12Z"/></g><g id="path4989"><path class="cls-3" d="M78.03,145.33c-.81.75-1.17.51-1.85,0-.63-.47-1.11-1.19.06-1.79,4.69-2.39,10.02-9.08,27.11-9.08l20.4-.27,2.17,2.3-21.93-.24c-9.03-.1-18.23,1.87-25.96,9.08h0Z"/></g><g id="path4991"><path class="cls-4" d="M139.93,139.5l-6.27-.42"/></g><g id="path4993"><path class="cls-4" d="M147.73,133.56l-7.83,3.17"/></g><g id="path4995"><path class="cls-4" d="M154.12,120.13l-10.61,7.03"/></g><g id="path4997"><path class="cls-4" d="M134.96,124.41l3.58-3.58"/></g><g id="path4999"><path class="cls-4" d="M128.65,126.19l4.28-3.26"/></g><g id="path5003"><path class="cls-4" d="M149.65,127.42l-6.94,4.25"/></g><g id="path5007"><path class="cls-3" d="M143.88,131.04c-4.22-2.79-9.02-.19-9.04,2.03,2.91,1.05,6.83,2.08,9.04-2.03Z"/></g><g id="path5009"><path class="cls-3" d="M141.62,123c.14,4.27-3.83,7.54-8.23,7.14,1.03-4.62,5.95-7.35,8.23-7.14Z"/></g><g id="path5011"><path class="cls-3" d="M144.43,126.52c-.62,3.33-5.83,4.89-9.49,3.8.68-3.4,7.19-5.06,9.49-3.8h0Z"/></g><g id="path5013"><path class="cls-3" d="M135.29,123.95c-4.7.51-6.3,4.7-6.83,7.91,4.15-.92,8.39-2.52,6.83-7.91Z"/></g><g id="path5015"><path class="cls-3" d="M141.44,136.02c-2.94-3.82-7.25-3.19-12.12-.77,3.75,3.8,7.89,2.82,12.12.77Z"/></g><g id="path5017"><path class="cls-3" d="M137.92,129.64c-4.33-1.68-10.5.71-10.9,4.93,4.4,1.2,11.19.12,10.9-4.93Z"/></g><g id="path5019"><path class="cls-3" d="M129.51,125.48c-3.61,1.78-7.47,3.3-7.1,9.18,7.37,1.79,7.07-4.34,7.1-9.18Z"/></g><g id="path5021"><path class="cls-2" d="M135.16,139.23c-4.95.87-9.56.13-12.74-4.4,4.39-1.98,9.62-.6,12.74,4.4Z"/></g><g id="path5023"><path class="cls-4" d="M141.54,123.14l2.69-2.81"/></g><g id="path5025"><path class="cls-3" d="M121,139.44h-6.01c-5.54-3.97-7.74-8.55-17.14-8.95-3.43-.15-6.62,3.04-7.29,4.48,4.49-2.41,7.96-1.6,13.04,3.96,2.43,2.67,5.6,4.32,9.85,4.6,5.69.38,5.59-2.4,7.54-4.09Z"/></g><g id="path4400"><path class="cls-7" d="M111.04,105.73c-1.09,1.33-4.07,2.05-4.82,4,0,1.39,0,2.79,0,4.2-.05.25-.18.5-.26.59-.25-.54-.19-1.41-.87-1.3-.48.05-.89,1.11-.82,2.31.19.27,1.01-.23,1.07.13.02.84-.75,1.58-1.67,2.14-.16,0-.13.13.25.18.57-.27,1.24-.38,1.86-.54.17-.52.31-.89.23-2.04.3-.27.43-.65.43-1.09.3.48.88.83,1.52.85,1.41-.1,2.15-2.45,3.07-3.32-.03-.16-.01-.14-.05-.29-.57-.08-1.09-.59-1.82-.55-.49-.02-1.34,1.01-1.56,2.43-.32.3-.9-.35-.93-.84-.02-1.06.06-1.27,0-2.3.6-1.24,1.61-1.41,2.94-2.29,1.05-.62,1.49-1.73,1.44-2.26h0ZM109.56,111.62c.5-.01.64.17.58.32-.35.93-1.24,1.47-2.21,1.45.17-.71.82-1.71,1.39-1.76.09,0,.17-.02.24-.02Z"/></g><g id="_35877496"><path class="cls-7" d="M101.81,112.63c.38.06.35,1,1.11.89.27.51-.1,1.03-.25,1.54-.33.17-.86-.11-1.25-.29-.6.4-.4,1.58-1.14,1.82-.41-.02-.7-.36-1.11-.36-1.35,1.81-4.4,3.34-7.03,3.34-1.63-.02-2.25-.57-2.12-1.63.03-.57.11-1.12.3-1.6.11,0,.21-.02.32-.03-.29,1.17.17,1.54,1.09,1.54,3.14-.06,5.32-.62,7.16-2.14.3-.03.81.29,1.03.1.36-.35.27-.87.54-1.3.03-.06.41-.25.46-.27.14-.7.27-1.25.9-1.6Z"/></g><g id="_36817240"><path class="cls-7" d="M95.04,114.33c.22-.27.76.74,1.17,1.09.14.16-.57.54-.89.82-.11.08-.76-.78-1.14-1.17-.06-.08.6-.48.86-.74h0Z"/></g><g id="_36886800"><path class="cls-7" d="M93.47,114.54c.22-.27.76.74,1.19,1.11.13.14-.59.52-.9.81-.1.08-.74-.78-1.12-1.16-.06-.1.59-.49.84-.76h0Z"/></g><g id="_36886888"><path class="cls-7" d="M83.33,111.02c.32-.17.43.98.7,1.46.06.19-.73.29-1.14.43-.13.05-.41-1-.62-1.49-.03-.11.73-.24,1.06-.4h0Z"/></g><g id="_36886976"><path class="cls-7" d="M70.37,115.14c.3-.17.43.98.68,1.46.08.19-.73.29-1.12.43-.13.05-.41-1-.63-1.49-.02-.11.73-.24,1.08-.4h0Z"/></g><g id="_35879432"><path class="cls-7" d="M77.44,118.94c.3-.16.43.98.68,1.47.08.19-.73.27-1.12.43-.13.03-.41-1-.62-1.5-.03-.11.71-.22,1.06-.4h0Z"/></g><g id="_36888384"><path class="cls-7" d="M83.06,116.21c.3-.17.43.98.68,1.46.08.19-.73.29-1.12.43-.13.05-.41-1-.62-1.5-.03-.1.71-.22,1.06-.38h0Z"/></g><g id="_35878904"><path class="cls-7" d="M84.69,116.88c.3-.16.43.98.68,1.47.08.19-.73.27-1.12.43-.13.03-.41-1-.63-1.5-.02-.11.73-.22,1.08-.4h0Z"/></g><g id="_36887504"><path class="cls-7" d="M83.23,118.24c.32-.17.43.98.7,1.46.08.19-.73.29-1.14.43-.13.05-.41-1-.62-1.49-.03-.11.73-.24,1.06-.4h0Z"/></g><g id="_35877232"><path class="cls-7" d="M84.6,114.44c-.35.38-.73.59-1.36.4-.33-.27-.14-.78-.44-.93-1.01-.21-3.6.22-3.77,1.22.51.27,1.14.54,1.74.73-.4.19-1.24.36-1.9.22-.84.05-.97-.76-.43-1.73.59-1.38,1.38-2.69,1.85-4.09-.32.29-.52.55-.98.52-.79,2-1.55,3.44-2.07,4.97-.19.52.06,1.6.97,1.87,1.57.32,2.85-1.16,3.88-1.5.05-.19.03-.14.08-.33-.52-.29-1.68-.82-2.19-1.11.48-.41,1.74-.27,2.41-.05.38.17.27.78.73.89.62.1,1.35-.27,1.54-.79.02-.13,0-.22-.05-.29h0Z"/></g><g id="_36887856"><path class="cls-7" d="M76.72,113.78c-.05.17-.05.1-.1.27-1.65,1.03-3.67,1.68-7.41-.4-2.23-1.25-.92-2.6-.32-3.36.59,2.19,3.56,4.07,7.82,3.48h0Z"/></g></svg>