<svg viewBox="0 0 180 180" xmlns="http://www.w3.org/2000/svg">
  <path d="M 5.3105469 120 A 90 90 0 0 0 90 180 A 90 90 0 0 0 174.68945 120 L 5.3105469 120 z " style="fill:#479951;fill-opacity:1;stroke:none"/>
  <path d="M 5.3105469 60 A 90 90 0 0 0 0 90 A 90 90 0 0 0 5.3105469 120 L 174.68945 120 A 90 90 0 0 0 180 90 A 90 90 0 0 0 174.82422 60 L 5.3105469 60 z " style="fill:#ffffff;fill-opacity:1;stroke:none" />
  <path d="M 90 0 A 90 90 0 0 0 5.3105469 60 L 174.82422 60 A 90 90 0 0 0 90 0 z " style="fill:#ce6f2d;fill-opacity:1;stroke:none;stroke-opacity:1"/>
  <path fill-rule="evenodd" d="m 90.8,115.6 c 13.69666,0 24.8,-11.10334 24.8,-24.8 C 115.6,77.103337 104.49666,66 90.8,66 77.103337,66 66,77.103337 66,90.8 c 0,13.69666 11.103337,24.8 24.8,24.8 z m 0,-2.27496 c 12.41059,0 22.47136,-10.07279 22.47136,-22.498202 0,-12.425413 -10.06077,-22.4982 -22.47136,-22.4982 -12.410591,0 -22.471362,10.072787 -22.471362,22.4982 0,12.425412 10.060771,22.498202 22.471362,22.498202 z M 90.450704,95.107981 c 2.250625,0 4.075118,-1.824492 4.075118,-4.075117 0,-2.250625 -1.824493,-4.075118 -4.075118,-4.075118 -2.250625,0 -4.075117,1.824493 -4.075117,4.075118 0,2.250625 1.824492,4.075117 4.075117,4.075117 z m 0,17.943739 0.698592,-12.22535 -0.698592,-5.821597 -0.698591,5.821597 z m -2.792525,0.83575 c 0.557843,0.0734 1.0696,-0.31924 1.143041,-0.87709 0.07344,-0.55784 -0.319243,-1.0696 -0.877086,-1.14304 -0.557843,-0.0734 -1.0696,0.31924 -1.143041,0.87709 -0.07344,0.55784 0.319243,1.0696 0.877086,1.14304 z m -2.920727,-1.58791 3.838942,-11.62798 0.831952,-5.804036 -2.181527,5.442426 z m -5.323903,-2.20524 6.717674,-10.238165 2.3058,-5.390946 -3.515796,4.692354 z m -4.571739,-3.50801 9.138608,-8.150655 3.622511,-4.610469 -4.610469,3.622512 z m -3.508019,-4.57174 10.936761,-5.507682 4.692354,-3.515796 -5.390946,2.3058 z m -2.205233,-5.323907 11.989592,-2.489366 5.442421,-2.181528 -5.804039,0.831952 z m -0.752164,-5.713252 12.225352,0.698592 5.821596,-0.698592 -5.821596,-0.698591 z m 0.752164,-5.713252 11.627974,3.838942 5.804039,0.831952 -5.442421,-2.181528 z m 2.205233,-5.323903 10.238169,6.717674 5.390946,2.3058 -4.692354,-3.515796 z m 3.508019,-4.57174 8.15065,9.138609 4.610469,3.622511 -3.622511,-4.610469 z m 4.571739,-3.508019 5.507678,10.936762 3.515796,4.692354 -2.3058,-5.390946 z m 5.323903,-2.205232 2.489367,11.989592 2.181527,5.442421 -0.831952,-5.804039 z m 5.713252,-0.752164 -0.698591,12.225352 0.698591,5.821596 0.698592,-5.821596 z m 5.713252,0.752164 -3.838941,11.627974 -0.831953,5.804039 2.181528,-5.442421 z m 5.323904,2.205232 -6.717675,10.23817 -2.3058,5.390946 3.515796,-4.692354 z m 4.57174,3.508019 -9.138609,8.150651 -3.622512,4.610469 4.610469,-3.622511 z m 3.50802,4.57174 -10.936763,5.507678 -4.692355,3.515796 5.390946,-2.3058 z m 2.20523,5.323903 -11.989591,2.489366 -5.442422,2.181528 5.804043,-0.831952 z m 0.75216,5.713252 -12.22535,-0.698591 -5.821594,0.698591 5.821594,0.698592 z m -0.75216,5.713252 -11.62797,-3.838942 -5.804043,-0.831952 5.442422,2.181528 z m -2.20523,5.323907 -10.238172,-6.717678 -5.390946,-2.3058 4.692355,3.515796 z m -3.50802,4.57174 -8.150652,-9.138612 -4.610469,-3.622512 3.622512,4.610469 z m -4.57174,3.50801 -5.507679,-10.936757 -3.515796,-4.692354 2.3058,5.390946 z m -5.323904,2.20524 -2.489366,-11.98959 -2.181528,-5.442426 0.831953,5.804036 z m -14.331955,0.0879 c 0.521686,0.21077 1.115463,-0.0413 1.326237,-0.56296 0.210775,-0.52168 -0.04127,-1.11546 -0.562954,-1.32624 -0.521686,-0.21077 -1.115462,0.0413 -1.326237,0.56296 -0.210775,0.52168 0.04127,1.11546 0.562954,1.32624 z m -5.247647,-2.96022 c 0.449358,0.33862 1.088135,0.24884 1.42675,-0.20051 0.338615,-0.44936 0.248841,-1.08814 -0.200516,-1.42676 -0.449357,-0.33861 -1.088135,-0.24884 -1.42675,0.20052 -0.338615,0.44936 -0.248841,1.08814 0.200516,1.42675 z m -4.302678,-4.21754 c 0.346406,0.44338 0.986653,0.522 1.430033,0.17559 0.443379,-0.3464 0.521991,-0.98665 0.175585,-1.43003 -0.346405,-0.44338 -0.986653,-0.52199 -1.430032,-0.17559 -0.443379,0.34641 -0.521991,0.98666 -0.175586,1.43003 z m -3.064489,-5.18744 c 0.219848,0.51793 0.817933,0.75957 1.335861,0.53972 0.517928,-0.21984 0.75957,-0.817928 0.539722,-1.335856 -0.219847,-0.517928 -0.817932,-0.75957 -1.33586,-0.539723 -0.517928,0.219847 -0.75957,0.817932 -0.539723,1.335859 z m -1.617459,-5.803832 c 0.07831,0.55718 0.59347,0.945384 1.150651,0.867078 0.557181,-0.07831 0.945385,-0.593471 0.867078,-1.150652 -0.07831,-0.55718 -0.593471,-0.945384 -1.150651,-0.867078 -0.557181,0.07831 -0.945385,0.593471 -0.867078,1.150652 z m -0.0602,-6.024703 c -0.06857,0.558463 0.328565,1.066773 0.887028,1.135344 0.558462,0.06857 1.066773,-0.328565 1.135343,-0.887028 0.06857,-0.558462 -0.328565,-1.066773 -0.887027,-1.135343 -0.558463,-0.06857 -1.066773,0.328565 -1.135344,0.887027 z m 1.501156,-5.834997 c -0.210775,0.521686 0.04127,1.115463 0.562954,1.326237 0.521686,0.210775 1.115463,-0.04127 1.326237,-0.562954 0.210775,-0.521686 -0.04127,-1.115462 -0.562954,-1.326237 -0.521686,-0.210775 -1.115462,0.04127 -1.326237,0.562954 z m 2.960213,-5.247647 c -0.338615,0.449358 -0.24884,1.088135 0.200517,1.42675 0.449357,0.338615 1.088135,0.248841 1.42675,-0.200516 0.338615,-0.449358 0.248841,-1.088135 -0.200517,-1.42675 -0.449357,-0.338615 -1.088135,-0.248841 -1.42675,0.200516 z m 4.217538,-4.302678 c -0.443379,0.346406 -0.521992,0.986653 -0.175586,1.430033 0.346406,0.443379 0.986653,0.521991 1.430032,0.175585 0.443379,-0.346406 0.521992,-0.986653 0.175586,-1.430032 -0.346406,-0.443379 -0.986653,-0.521992 -1.430032,-0.175586 z m 5.187443,-3.064489 c -0.517928,0.219848 -0.75957,0.817933 -0.539722,1.335861 0.219847,0.517927 0.817932,0.759569 1.33586,0.539722 0.517928,-0.219847 0.75957,-0.817932 0.539722,-1.33586 -0.219847,-0.517928 -0.817932,-0.75957 -1.33586,-0.539723 z m 5.803834,-1.617459 c -0.557181,0.07831 -0.945385,0.59347 -0.867078,1.150651 0.07831,0.55718 0.59347,0.945384 1.150651,0.867078 0.557181,-0.07831 0.945385,-0.593471 0.867078,-1.150651 -0.07831,-0.557181 -0.593471,-0.945385 -1.150651,-0.867078 z m 6.024702,-0.0602 c -0.558462,-0.06857 -1.066773,0.328565 -1.135343,0.887028 -0.06857,0.558462 0.328565,1.066773 0.887027,1.135343 0.558462,0.06857 1.066773,-0.328565 1.135343,-0.887027 0.06857,-0.558463 -0.328565,-1.066773 -0.887027,-1.135344 z m 5.834997,1.501156 c -0.521686,-0.210775 -1.115462,0.04127 -1.326237,0.562954 -0.210775,0.521686 0.04127,1.115462 0.562954,1.326237 0.521686,0.210775 1.115463,-0.04127 1.326238,-0.562954 0.210774,-0.521686 -0.04127,-1.115463 -0.562955,-1.326237 z m 5.247639,2.960213 c -0.44935,-0.338615 -1.08813,-0.248841 -1.42675,0.200517 -0.33861,0.449357 -0.24884,1.088135 0.20052,1.42675 0.44936,0.338615 1.08814,0.24884 1.42675,-0.200517 0.33862,-0.449357 0.24884,-1.088135 -0.20052,-1.42675 z m 4.30268,4.217538 c -0.3464,-0.44338 -0.98665,-0.521992 -1.43003,-0.175586 -0.44338,0.346406 -0.52199,0.986653 -0.17559,1.430032 0.34641,0.443379 0.98666,0.521992 1.43004,0.175586 0.44338,-0.346406 0.52199,-0.986653 0.17558,-1.430032 z m 3.06449,5.187443 c -0.21985,-0.517928 -0.81793,-0.75957 -1.33586,-0.539722 -0.51793,0.219847 -0.75957,0.817932 -0.53972,1.33586 0.21985,0.517927 0.81793,0.759569 1.33586,0.539722 0.51793,-0.219847 0.75957,-0.817932 0.53972,-1.33586 z m 1.61746,5.803834 c -0.0783,-0.557181 -0.59347,-0.945385 -1.15065,-0.867078 -0.55718,0.07831 -0.94538,0.59347 -0.86708,1.150651 0.0783,0.557181 0.59347,0.945385 1.15065,0.867078 0.55718,-0.07831 0.94539,-0.593471 0.86708,-1.150651 z m 0.0602,6.024702 c 0.0686,-0.558463 -0.32856,-1.066773 -0.88702,-1.135344 -0.55847,-0.06857 -1.06678,0.328566 -1.13535,0.887028 -0.0686,0.558462 0.32857,1.066773 0.88703,1.135343 0.55846,0.06857 1.06677,-0.328565 1.13534,-0.887027 z m -1.50115,5.834997 c 0.21077,-0.521686 -0.0413,-1.115462 -0.56296,-1.326237 -0.52168,-0.210775 -1.11546,0.04127 -1.32623,0.562954 -0.21078,0.521686 0.0413,1.115463 0.56295,1.326235 0.52169,0.21077 1.11546,-0.0413 1.32624,-0.562952 z m -2.96021,5.247642 c 0.33861,-0.44936 0.24884,-1.08813 -0.20052,-1.42675 -0.44936,-0.33861 -1.08814,-0.24884 -1.42675,0.20052 -0.33862,0.44936 -0.24884,1.08813 0.20052,1.42675 0.44935,0.33861 1.08813,0.24884 1.42675,-0.20052 z m -4.21754,4.30268 c 0.44338,-0.34641 0.52199,-0.98665 0.17558,-1.43003 -0.3464,-0.44338 -0.98665,-0.52199 -1.43003,-0.17559 -0.44338,0.34641 -0.52199,0.98665 -0.17559,1.43003 0.34641,0.44338 0.98666,0.522 1.43004,0.17559 z m -5.187442,3.06449 c 0.517922,-0.21985 0.759562,-0.81793 0.539722,-1.33586 -0.219847,-0.51793 -0.817931,-0.75957 -1.335859,-0.53972 -0.517928,0.21984 -0.75957,0.81793 -0.539723,1.33586 0.219847,0.51792 0.817932,0.75956 1.33586,0.53972 z m -5.803833,1.61746 c 0.55718,-0.0783 0.945384,-0.59347 0.867078,-1.15065 -0.07831,-0.55718 -0.593471,-0.94539 -1.150652,-0.86708 -0.55718,0.0783 -0.945384,0.59347 -0.867078,1.15065 0.07831,0.55718 0.593471,0.94538 1.150652,0.86708 z m 0,0" fill="#346da6"/>
</svg>
