<svg viewBox="0 0 2 2" xmlns="http://www.w3.org/2000/svg">
  <path d="M 1 0 A 1 1 0 0 0 0 1 A 1 1 0 0 0 1 2 A 1 1 0 0 0 2 1 A 1 1 0 0 0 1 0 z " style="fill:#ffff00;fill-opacity:1"/>
  <path d="M 0.29289063 0.29289063 A 1 1 0 0 0 0 1 A 1 1 0 0 0 0.29289063 1.7071094 L 1 1 L 0.29289063 0.29289063 z "/>
  <path d="M 1 1 L 0.29289063 1.7071094 A 1 1 0 0 0 1 2 A 1 1 0 0 0 1.7071094 1.7071094 L 1 1 z " style="fill:#ff0000;fill-opacity:1"/>
  <path d="M 1.7071094 0.29289063 L 1 1 L 1.7071094 1.7071094 A 1 1 0 0 0 2 1 A 1 1 0 0 0 1.7071094 0.29289063 z " style="fill:#0000ff;fill-opacity:1"/>
</svg>
